<?xml version="1.0" standalone="no"?>
<!DOCTYPE svg PUBLIC "-//W3C//DTD SVG 20010904//EN"
 "http://www.w3.org/TR/2001/REC-SVG-20010904/DTD/svg10.dtd">
<svg version="1.0" xmlns="http://www.w3.org/2000/svg"
 width="355.000000pt" height="355.000000pt" viewBox="0 0 355.000000 355.000000"
 preserveAspectRatio="xMidYMid meet">
<metadata>
Created by potrace 1.14, written by Peter Selinger 2001-2017
</metadata>
<g transform="translate(0.000000,355.000000) scale(0.100000,-0.100000)"
fill="#000000" stroke="none">
<path d="M1279 3508 c-1 -7 -1 -31 0 -53 1 -22 1 -46 1 -52 0 -7 0 -33 0 -58
0 -25 0 -52 0 -60 0 -8 0 -35 0 -60 0 -25 0 -52 0 -60 0 -8 0 -35 0 -60 0 -25
0 -52 0 -60 0 -8 0 -35 0 -60 0 -25 0 -52 0 -60 0 -8 0 -35 0 -60 0 -25 0 -52
0 -60 0 -8 0 -35 0 -60 0 -25 0 -52 0 -60 0 -8 0 -35 0 -60 0 -25 0 -52 0 -60
0 -8 0 -35 0 -60 0 -25 0 -52 0 -60 0 -8 0 -35 0 -60 0 -25 0 -52 0 -60 0 -8
0 -28 0 -45 0 -16 0 -36 0 -42 0 -7 -1 -31 -3 -53 -2 -22 1 -46 6 -52 5 -7 6
-13 1 -13 -11 0 -11 -91 0 -108 4 -7 4 -12 -1 -12 -10 0 -10 -91 1 -108 4 -7
4 -12 -1 -12 -10 0 -10 -91 1 -108 4 -7 4 -12 -1 -12 -10 0 -10 -91 1 -108 4
-7 4 -12 -1 -12 -10 0 -10 -91 1 -108 4 -7 4 -12 -1 -12 -10 0 -10 -91 1 -108
4 -7 4 -12 -1 -12 -10 0 -10 -91 1 -108 4 -7 4 -12 -1 -12 -10 0 -10 -91 1
-108 4 -7 4 -12 -1 -12 -10 0 -10 -91 1 -108 4 -7 4 -12 -1 -12 -4 0 -8 -117
-8 -260 0 -201 3 -260 13 -260 6 0 12 -4 12 -10 0 -5 7 -10 15 -10 8 0 15 -3
15 -8 0 -4 9 -12 20 -17 85 -42 129 -69 124 -76 -2 -4 5 -6 16 -4 11 2 20 0
20 -4 0 -8 20 -16 43 -19 5 0 17 -10 26 -21 10 -11 21 -18 25 -14 3 3 6 1 6
-6 0 -7 4 -10 9 -7 4 3 19 -3 31 -14 12 -11 27 -17 31 -14 5 3 9 0 9 -5 0 -6
12 -11 27 -11 14 0 23 3 20 6 -3 4 -2 16 4 27 9 15 8 18 -2 12 -9 -6 -10 -3
-4 11 5 10 9 61 9 112 1 50 5 92 9 92 5 0 5 6 0 13 -11 18 -12 36 -2 43 5 3 6
11 2 17 -11 18 -12 36 -2 43 5 3 6 11 2 17 -12 20 -14 47 -2 47 6 0 7 5 2 13
-12 20 -14 47 -2 47 5 0 7 5 3 11 -10 17 -10 329 0 329 5 0 3 6 -3 13 -6 8 -8
17 -4 21 4 4 1 11 -7 16 -10 7 -11 10 -2 10 6 0 12 12 12 26 0 14 -4 22 -10
19 -6 -3 -7 1 -4 9 3 9 11 16 18 16 7 0 7 3 1 8 -12 8 -14 242 -2 242 5 0 5 6
0 13 -12 20 -14 47 -2 47 6 0 7 5 2 13 -12 20 -14 47 -2 47 6 0 7 5 2 13 -12
20 -14 47 -2 47 8 0 8 4 2 13 -11 14 -11 27 0 44 4 6 4 14 0 16 -5 3 -7 52 -7
109 1 67 -2 106 -10 110 -8 6 -7 8 2 8 9 0 11 11 7 41 -4 24 -2 39 3 35 5 -3
7 6 4 19 -2 15 -9 22 -16 18 -6 -4 -5 1 3 10 11 14 11 20 0 34 -8 10 -9 14 -2
10 6 -4 14 -3 18 3 3 5 3 10 -2 10 -4 0 -8 18 -9 40 -1 22 3 40 9 40 5 0 5 6
-2 13 -6 8 -8 17 -4 21 4 4 1 11 -7 16 -11 7 -11 10 -2 10 14 0 12 36 -2 59
-6 9 -5 12 1 8 7 -5 10 26 9 93 -1 55 2 100 6 100 5 0 6 5 2 12 -10 16 -11
208 -1 208 4 0 5 6 0 13 -12 20 -14 47 -2 47 6 0 7 5 2 13 -12 20 -14 47 -2
47 6 0 7 5 2 13 -12 20 -14 47 -2 47 7 0 8 5 2 13 -5 6 -8 56 -7 110 1 64 -3
97 -10 97 -7 0 -7 3 -1 8 15 11 17 32 3 32 -9 0 -8 4 2 10 8 5 10 10 4 10 -7
0 -10 13 -9 29 2 21 -1 28 -11 24 -8 -3 -14 0 -14 7 0 6 -4 8 -10 5 -5 -3 -10
-1 -10 4 0 6 -7 11 -16 11 -8 0 -13 4 -9 9 3 6 -4 8 -15 6 -13 -3 -20 1 -20
12 0 9 -6 13 -14 10 -8 -3 -20 1 -26 9 -7 8 -21 14 -32 14 -10 0 -21 7 -24 15
-4 8 -14 15 -24 15 -10 0 -32 14 -50 30 -32 30 -46 38 -35 20 3 -6 -1 -7 -9
-4 -9 3 -16 10 -16 15 0 5 -9 9 -20 9 -11 0 -20 3 -20 8 0 8 -49 32 -67 32 -7
0 -14 -6 -14 -12z"/>
<path d="M2470 3026 c-4 -12 -4 -28 1 -38 6 -11 4 -18 -7 -22 -13 -5 -13 -9 1
-37 9 -17 12 -29 7 -25 -5 3 -7 -19 -5 -55 3 -41 1 -59 -6 -54 -7 3 -8 0 -5
-9 3 -9 11 -13 16 -10 6 4 6 -1 -1 -13 -7 -14 -7 -23 1 -31 9 -9 9 -12 -1 -12
-11 0 -11 -3 0 -17 10 -11 10 -14 2 -9 -16 9 -17 -6 -1 -22 7 -7 8 -12 2 -12
-12 0 -12 -29 -1 -47 4 -6 3 -14 -3 -18 -7 -4 -6 -13 1 -27 8 -15 8 -19 0 -14
-6 4 -11 3 -11 -3 0 -5 6 -12 13 -14 9 -4 8 -6 -2 -6 -11 -1 -11 -4 -1 -16 7
-8 8 -15 3 -15 -11 0 -11 -29 0 -47 4 -6 3 -15 -3 -18 -8 -5 -7 -11 1 -21 9
-11 9 -14 -1 -14 -9 0 -9 -4 1 -17 10 -11 10 -14 2 -9 -7 4 -13 3 -13 -3 0 -5
4 -12 10 -16 5 -3 6 -16 2 -28 -9 -28 -8 -59 1 -75 5 -7 3 -12 -4 -12 -8 0 -7
-5 2 -17 10 -11 10 -14 2 -9 -16 9 -17 -6 -1 -22 7 -7 8 -12 2 -12 -12 0 -12
-29 -1 -47 4 -6 3 -14 -3 -18 -7 -4 -6 -13 1 -27 8 -15 8 -19 0 -14 -6 4 -11
3 -11 -3 0 -5 6 -12 13 -14 9 -4 9 -6 -1 -6 -10 -1 -10 -6 -2 -21 8 -15 8 -20
-1 -20 -8 0 -8 -4 1 -15 10 -12 10 -15 -1 -15 -12 0 -12 -2 0 -9 10 -7 10 -10
1 -13 -10 -3 -10 -9 0 -27 7 -15 8 -21 1 -17 -6 4 -11 3 -11 -3 0 -5 6 -12 13
-14 9 -4 8 -6 -2 -6 -11 -1 -11 -4 -1 -16 10 -12 10 -15 0 -15 -9 0 -9 -4 1
-17 10 -11 10 -14 2 -9 -16 9 -17 -6 -2 -21 8 -8 8 -13 0 -17 -8 -5 -8 -13 0
-28 8 -15 8 -19 0 -14 -6 4 -11 3 -11 -3 0 -5 6 -12 13 -14 9 -4 9 -6 -1 -6
-10 -1 -10 -6 -1 -22 8 -15 8 -19 0 -15 -6 4 -11 2 -11 -3 0 -6 6 -11 13 -11
9 0 8 -3 -2 -9 -10 -6 -10 -10 -1 -16 9 -6 9 -9 -1 -15 -10 -7 -10 -11 0 -24
11 -12 11 -16 1 -16 -9 0 -9 -4 1 -17 10 -11 10 -14 2 -9 -16 9 -17 -6 -1 -22
9 -9 9 -12 -1 -12 -11 0 -11 -3 0 -17 10 -11 10 -14 2 -9 -16 9 -17 -6 -2 -21
8 -8 8 -13 0 -17 -8 -5 -8 -13 0 -28 8 -15 8 -19 0 -14 -6 4 -11 2 -11 -3 0
-6 6 -11 13 -11 9 0 8 -3 -2 -9 -9 -6 -10 -11 -2 -15 6 -4 7 -16 3 -29 -9 -27
-8 -70 3 -87 5 -9 4 -11 -3 -6 -7 4 -12 3 -12 -3 0 -5 6 -12 13 -14 9 -4 9 -6
-1 -6 -7 -1 -10 -5 -7 -11 11 -18 14 -51 4 -45 -5 4 -9 2 -9 -4 0 -5 5 -13 10
-16 8 -5 8 -11 1 -19 -7 -9 -7 -16 1 -24 9 -9 9 -12 -1 -12 -11 0 -11 -3 0
-17 10 -11 10 -14 2 -9 -16 9 -17 -6 -1 -22 9 -9 9 -12 -1 -12 -11 0 -11 -3 0
-17 10 -11 10 -14 2 -9 -7 4 -13 3 -13 -3 0 -5 4 -12 10 -16 6 -4 6 -15 0 -30
-6 -15 -6 -25 0 -25 5 0 5 -12 0 -28 -4 -17 -3 -36 2 -47 8 -13 7 -16 -1 -11
-6 4 -11 3 -11 -3 0 -5 6 -12 13 -14 9 -4 9 -6 -1 -6 -7 -1 -11 -4 -9 -9 3 -4
6 -27 8 -52 2 -25 8 -48 14 -52 6 -5 6 -8 -2 -8 -7 0 -10 -7 -6 -16 5 -13 7
-13 14 -2 7 10 9 9 9 -4 0 -10 7 -18 16 -18 8 0 12 -4 9 -10 -3 -6 1 -7 9 -4
9 3 16 1 16 -6 0 -6 5 -8 10 -5 6 3 10 -2 10 -12 0 -13 3 -14 8 -5 6 9 14 7
30 -8 12 -12 22 -18 22 -14 0 3 6 1 13 -5 8 -6 17 -8 20 -4 4 3 7 1 7 -5 0 -7
6 -12 13 -12 8 0 22 -9 33 -21 10 -11 26 -18 36 -16 9 3 17 2 16 -2 -2 -19 3
-24 12 -11 8 13 10 12 10 -2 0 -10 5 -19 10 -19 6 -1 14 -2 19 -3 6 0 16 -7
22 -13 7 -7 21 -13 31 -13 10 0 18 -4 18 -10 0 -5 7 -6 17 -3 12 5 14 3 8 -7
-5 -8 -4 -11 2 -7 14 9 14 700 -1 709 -8 6 -8 8 1 8 16 0 15 230 -1 230 -8 0
-8 2 1 8 15 10 15 384 -1 394 -8 6 -8 8 1 8 16 0 15 230 -1 230 -8 0 -8 2 1 8
15 10 15 384 -1 394 -8 6 -8 8 1 8 16 0 15 259 -1 279 -8 11 -8 13 1 7 9 -5
12 2 10 26 -2 18 -6 33 -9 33 -3 0 -15 9 -27 19 -12 11 -21 16 -21 12 0 -4 -7
0 -16 8 -8 9 -20 14 -25 11 -5 -4 -9 -2 -9 4 0 5 -9 13 -21 16 -12 4 -37 18
-57 31 -20 14 -42 22 -49 19 -8 -2 -12 -1 -9 3 7 12 -26 37 -49 38 -11 0 -19
5 -17 12 1 7 -1 11 -5 11 -32 -5 -56 4 -60 22 -4 16 -8 17 -14 7 -7 -10 -9
-11 -9 0 0 7 -4 10 -10 7 -5 -3 -10 -2 -10 3 0 18 -32 8 -40 -12z"/>
<path d="M685 2511 c1 -26 -3 -49 -9 -53 -7 -5 -7 -8 3 -8 11 0 11 -3 1 -15
-8 -9 -8 -15 -2 -15 11 0 9 -66 -2 -77 -3 -3 -1 -12 5 -20 9 -10 8 -13 -2 -13
-9 0 -10 -3 -4 -8 14 -9 14 -75 1 -84 -7 -5 -6 -8 3 -8 11 0 11 -3 1 -15 -8
-9 -8 -15 -2 -15 11 0 9 -66 -2 -77 -3 -3 -1 -12 5 -20 9 -10 8 -13 -2 -13 -9
0 -10 -3 -4 -8 14 -9 14 -75 1 -84 -7 -5 -6 -8 3 -8 11 0 11 -3 1 -15 -8 -9
-8 -15 -2 -15 11 0 9 -66 -2 -77 -3 -3 -1 -12 5 -20 9 -10 8 -13 -2 -13 -9 0
-10 -3 -4 -8 14 -9 14 -75 1 -84 -7 -5 -6 -8 3 -8 11 0 11 -3 1 -15 -7 -8 -8
-15 -3 -15 11 0 10 -90 0 -108 -4 -6 -3 -13 2 -17 12 -7 10 -45 -2 -45 -4 0
-5 -5 -1 -12 11 -17 11 -78 1 -85 -4 -2 -4 -10 1 -16 12 -15 11 -47 0 -47 -5
0 -6 -5 -2 -12 11 -17 11 -78 1 -85 -4 -2 -4 -10 1 -16 12 -15 11 -47 0 -47
-5 0 -6 -5 -2 -12 11 -17 11 -78 1 -85 -4 -2 -4 -10 1 -16 12 -16 11 -47 -1
-47 -6 0 -6 -5 0 -12 5 -7 9 -31 8 -53 -1 -22 3 -46 8 -53 7 -9 5 -11 -8 -6
-14 6 -16 4 -10 -7 13 -21 14 -53 1 -61 -7 -5 -7 -8 3 -8 11 0 11 -3 1 -15 -8
-9 -8 -15 -2 -15 11 0 9 -66 -2 -77 -3 -3 -1 -12 5 -20 9 -10 8 -13 -2 -13 -9
0 -10 -3 -4 -8 14 -9 14 -75 1 -84 -7 -5 -6 -8 3 -8 11 0 11 -3 1 -15 -8 -9
-8 -15 -2 -15 11 0 9 -66 -2 -77 -3 -3 -1 -12 5 -20 9 -10 8 -13 -2 -13 -12 0
-12 -2 -1 -9 8 -4 13 -11 13 -15 -5 -32 2 -45 32 -56 17 -8 41 -20 51 -29 16
-13 18 -14 12 -1 -7 13 -6 13 6 0 7 -8 24 -21 38 -28 52 -26 70 -39 64 -45 -3
-3 2 -4 12 -3 10 2 24 -2 31 -8 44 -39 60 -47 48 -23 -4 6 0 4 8 -5 8 -10 17
-15 20 -11 4 3 7 1 7 -6 0 -7 4 -10 9 -6 5 3 15 -1 23 -8 16 -16 47 -31 68
-32 19 -1 31 26 18 43 -7 8 -7 12 0 12 11 0 9 31 -4 52 -5 8 -2 9 10 5 13 -5
15 -3 8 11 -5 9 -8 27 -6 40 2 13 0 21 -4 18 -5 -3 -9 1 -9 9 0 8 4 12 7 10 4
-3 8 6 7 20 0 14 -3 23 -7 20 -3 -2 -7 2 -7 10 0 8 4 12 7 10 4 -3 8 6 8 20 0
14 -4 23 -8 20 -3 -2 -7 2 -7 10 0 8 4 12 9 9 4 -3 8 -1 8 5 0 5 -5 13 -10 16
-6 4 -7 12 -3 18 10 16 10 37 0 66 -7 22 -6 23 9 10 16 -13 16 -12 7 6 -6 11
-9 32 -7 48 2 18 -1 25 -8 21 -7 -5 -8 -2 -3 7 14 21 15 60 3 53 -7 -5 -8 -2
-2 7 13 21 14 39 1 39 -8 0 -8 3 -2 8 15 11 18 55 2 46 -9 -6 -9 -4 -2 7 12
17 13 39 1 58 -6 10 -5 12 2 7 7 -4 12 -2 12 3 0 6 -6 11 -12 11 -8 0 -9 3 -3
8 13 8 13 51 1 71 -6 10 -5 12 2 7 7 -4 12 -1 12 9 0 9 -4 13 -10 10 -7 -4 -7
2 -1 18 6 14 7 28 4 31 -3 3 0 12 6 20 9 11 9 16 0 22 -8 5 -9 3 -4 -6 5 -9 4
-11 -4 -6 -6 4 -8 13 -4 19 12 19 13 58 1 51 -7 -5 -8 -2 -3 7 14 21 15 60 3
53 -7 -5 -8 -2 -3 7 14 21 15 60 3 53 -7 -5 -8 -2 -2 7 12 19 16 51 6 45 -5
-3 -9 1 -9 9 0 8 3 12 7 10 4 -2 7 10 8 27 1 24 -2 28 -8 18 -6 -9 -10 -10
-10 -3 0 6 4 14 8 17 11 6 9 36 -3 55 -5 9 -4 12 2 8 6 -4 13 0 17 8 3 8 0 17
-6 21 -7 5 -8 2 -3 -6 5 -9 4 -11 -3 -6 -8 5 -9 13 -2 25 6 12 5 22 -3 31 -8
9 -8 11 -1 7 15 -9 27 20 12 29 -7 5 -8 2 -3 -6 5 -9 4 -11 -4 -6 -6 4 -8 13
-4 19 12 19 13 58 1 51 -7 -5 -8 -2 -3 7 14 21 15 60 3 53 -7 -5 -8 -2 -2 7
11 18 12 40 1 63 -7 15 -6 18 5 13 8 -3 15 1 15 9 0 7 -4 11 -8 9 -9 -6 -20
21 -12 29 4 3 8 17 9 31 2 17 -1 23 -9 18 -9 -5 -9 -3 -1 8 5 8 9 25 8 39 -1
14 3 31 9 38 7 9 6 11 -7 6 -14 -5 -15 -3 -7 20 7 17 7 27 0 32 -7 4 -7 10 0
18 7 9 7 16 0 23 -8 8 -8 17 0 31 14 27 14 35 -1 26 -10 -6 -10 -5 -1 7 16 20
17 31 1 40 -11 7 -11 9 1 9 11 0 11 3 1 15 -7 9 -8 15 -2 15 12 0 11 18 -2 39
-6 10 -5 12 2 7 7 -4 12 -2 12 3 0 6 -4 11 -10 11 -5 0 -10 7 -10 16 0 8 -4
12 -10 9 -5 -3 -10 -1 -10 4 0 6 -7 11 -16 11 -9 0 -28 9 -43 19 -15 11 -34
21 -41 23 -8 2 -21 9 -28 16 -8 7 -18 9 -24 6 -6 -4 -8 -3 -5 3 3 5 -7 17 -24
27 -16 9 -29 14 -29 11 0 -3 -10 3 -22 15 -19 17 -29 21 -53 20 -3 -1 -13 6
-21 15 -9 8 -20 13 -25 10 -5 -4 -9 1 -9 9 0 10 -6 13 -17 9 -11 -4 -14 -3 -9
5 5 8 0 12 -13 12 -12 0 -21 4 -21 8 0 5 -6 9 -14 9 -10 0 -13 -13 -11 -46z"/>
<path d="M1884 2403 c4 -8 2 -13 -5 -13 -6 0 -9 -8 -6 -20 3 -11 1 -23 -4 -26
-6 -4 -6 -11 1 -19 8 -10 8 -15 0 -20 -8 -5 -8 -10 0 -20 8 -10 8 -15 0 -20
-8 -5 -8 -10 0 -20 8 -9 8 -15 0 -20 -6 -3 -7 -12 -3 -18 10 -16 11 -146 1
-174 -4 -13 -3 -25 3 -29 7 -4 6 -10 -1 -19 -6 -7 -7 -15 -3 -18 10 -6 9 -169
-1 -185 -3 -6 -2 -14 4 -17 8 -5 8 -11 0 -20 -6 -7 -7 -15 -3 -18 10 -6 9
-169 -1 -185 -3 -6 -2 -14 4 -17 8 -5 8 -11 0 -20 -6 -7 -7 -15 -3 -18 10 -6
9 -169 -1 -185 -3 -6 -2 -14 4 -17 8 -5 8 -11 1 -19 -6 -7 -8 -16 -4 -20 10
-9 10 -106 1 -106 -5 0 -8 -5 -8 -11 0 -5 4 -8 9 -5 5 3 9 -5 9 -19 0 -14 -4
-23 -8 -20 -8 5 -6 -27 3 -42 4 -6 3 -14 -3 -18 -6 -4 -7 -12 -3 -18 10 -16
11 -146 1 -174 -4 -13 -3 -25 3 -29 7 -4 6 -10 -1 -19 -6 -7 -7 -15 -3 -18 4
-3 8 -36 7 -73 0 -64 11 -98 29 -87 4 2 7 0 7 -6 0 -5 9 -13 20 -16 11 -4 18
-11 15 -16 -3 -5 0 -6 8 -3 8 3 21 -2 30 -10 9 -9 20 -16 26 -16 6 0 11 -5 11
-11 0 -5 4 -8 9 -4 5 3 15 0 23 -7 7 -7 20 -14 28 -16 8 -2 17 -8 18 -13 2 -5
8 -7 12 -4 5 3 19 -5 31 -17 12 -13 19 -16 15 -8 -5 9 -2 9 7 -2 8 -10 17 -15
20 -11 4 3 7 1 7 -6 0 -7 5 -9 10 -6 6 3 13 -1 16 -9 3 -9 10 -13 15 -10 5 3
9 0 9 -5 0 -6 11 -11 25 -11 14 0 25 -4 25 -10 0 -15 40 -12 41 3 4 108 -1
1769 -6 1777 -3 6 -10 8 -15 5 -4 -3 -10 2 -14 10 -3 8 -12 15 -21 15 -8 0
-15 4 -15 10 0 5 -7 7 -15 4 -8 -4 -15 -1 -15 4 0 10 -27 23 -60 28 -8 2 -20
11 -28 21 -7 10 -14 16 -15 15 -4 -7 -57 21 -57 30 0 4 -9 8 -20 8 -11 0 -20
4 -20 8 0 12 -46 32 -71 32 -11 0 -17 5 -14 10 3 6 -2 10 -11 10 -10 0 -26 8
-37 18 -11 9 -17 11 -13 5z"/>
<path d="M3085 2200 c3 -5 2 -10 -2 -10 -12 0 -10 -144 2 -152 7 -5 7 -8 0 -8
-7 0 -10 -208 -10 -609 0 -335 3 -607 8 -604 6 4 11 -12 8 -29 0 -5 2 -7 7 -6
13 5 92 -25 92 -34 0 -5 5 -6 10 -3 6 3 10 2 10 -4 0 -5 10 -13 23 -17 12 -4
24 -10 27 -15 3 -4 12 -9 20 -11 8 -2 23 -11 34 -20 17 -16 28 -19 52 -18 3 1
14 -9 25 -22 11 -13 17 -16 13 -8 -5 10 -1 9 14 -3 11 -11 26 -16 31 -12 6 3
11 1 11 -4 0 -6 6 -11 13 -11 8 0 19 -10 25 -22 8 -18 11 -19 11 -5 1 9 6 17
11 17 7 0 10 234 10 683 l0 683 -25 22 c-14 12 -26 22 -28 22 -22 3 -47 14
-47 21 0 5 -6 8 -12 6 -7 -1 -12 3 -11 10 2 7 -4 10 -12 7 -8 -4 -15 -1 -15 5
0 6 -6 11 -14 11 -8 0 -22 7 -30 16 -9 8 -16 13 -16 9 0 -4 -7 1 -16 10 -9 9
-23 14 -30 11 -8 -3 -14 -1 -14 4 0 6 -9 10 -21 10 -11 0 -17 5 -14 10 3 6 -1
10 -10 10 -9 0 -23 7 -32 15 -8 8 -19 13 -24 10 -5 -4 -9 -1 -9 4 0 6 -6 11
-14 11 -7 0 -19 7 -26 15 -14 17 -35 21 -25 5z"/>
<path d="M100 1578 c0 -5 -4 -6 -10 -3 -5 3 -10 -1 -10 -10 0 -9 5 -13 11 -9
8 5 8 1 0 -14 -8 -15 -8 -23 0 -28 8 -4 8 -9 0 -17 -6 -6 -11 -18 -11 -26 0
-13 2 -14 9 -2 7 10 9 7 8 -12 -1 -14 -5 -23 -9 -20 -13 7 -9 -12 5 -26 10
-11 9 -12 -3 -6 -13 8 -13 7 -1 -8 9 -11 10 -17 2 -17 -6 0 -11 -5 -11 -11 0
-5 6 -7 13 -3 10 6 10 4 0 -7 -15 -16 -17 -33 -3 -24 6 3 10 1 10 -4 0 -6 -4
-11 -10 -11 -5 0 -10 -5 -10 -11 0 -5 6 -7 13 -3 10 6 10 4 0 -7 -14 -14 -18
-33 -5 -25 4 2 9 -5 9 -17 2 -17 0 -18 -7 -7 -7 11 -9 10 -7 -7 0 -12 4 -20 7
-18 3 2 6 -5 6 -15 0 -10 -4 -16 -8 -14 -4 3 -8 1 -8 -5 0 -5 4 -12 10 -16 6
-3 6 -15 0 -30 -6 -16 -6 -27 1 -31 8 -4 7 -10 0 -17 -14 -14 -14 -30 -1 -22
7 4 7 -3 0 -20 -13 -34 -13 -38 2 -29 10 6 10 4 0 -7 -6 -7 -12 -20 -12 -28 0
-13 2 -14 9 -2 7 10 9 7 8 -12 -1 -14 -5 -23 -9 -20 -13 7 -9 -12 5 -26 10
-11 9 -12 -3 -6 -13 8 -13 7 -1 -8 9 -11 10 -17 2 -17 -6 0 -11 -5 -11 -11 0
-5 6 -7 12 -3 11 6 11 4 0 -7 -14 -16 -16 -33 -2 -24 5 3 10 1 10 -4 0 -6 -4
-11 -10 -11 -5 0 -10 -5 -10 -11 0 -5 6 -7 12 -3 11 6 11 4 0 -7 -13 -14 -17
-33 -4 -25 4 2 9 -5 9 -17 2 -17 0 -18 -7 -7 -7 11 -9 10 -7 -7 0 -12 4 -20 7
-18 3 2 6 -5 6 -15 0 -10 -4 -16 -8 -14 -4 3 -8 1 -8 -5 0 -5 4 -12 10 -16 6
-3 6 -15 0 -29 -5 -15 -5 -27 2 -34 6 -6 6 -12 -1 -16 -6 -4 -11 -12 -11 -17
0 -6 4 -7 10 -4 7 4 7 -3 0 -20 -13 -34 -13 -38 2 -29 10 6 10 4 0 -7 -6 -7
-12 -20 -12 -29 0 -13 1 -13 10 0 7 11 8 8 6 -13 -1 -15 -6 -30 -9 -34 -12
-11 -7 -24 5 -17 10 6 10 5 1 -7 -16 -20 -17 -31 -1 -40 7 -5 8 -9 2 -9 -6 0
-9 -15 -8 -33 1 -17 3 -38 3 -44 1 -7 8 -13 17 -13 8 0 12 -5 9 -10 -4 -6 -3
-9 2 -8 15 4 58 -14 76 -33 9 -10 24 -16 32 -13 8 4 15 1 15 -6 0 -6 5 -8 10
-5 6 3 13 -1 16 -9 3 -9 10 -14 14 -11 5 3 14 -1 22 -8 7 -7 28 -19 45 -26 18
-7 30 -18 26 -24 -4 -6 0 -8 10 -4 9 3 22 0 29 -7 7 -7 19 -11 26 -8 6 2 15
-3 18 -12 3 -9 10 -13 15 -10 5 3 12 -2 15 -11 6 -13 8 -14 15 -3 6 9 9 10 9
1 0 -7 6 -10 13 -8 9 4 12 138 11 628 -1 342 -2 627 -3 633 -1 10 -26 23 -56
28 -5 1 -9 7 -8 14 2 7 0 11 -5 10 -4 -1 -17 3 -30 10 -12 7 -28 10 -34 6 -6
-4 -8 -3 -5 3 7 12 -87 66 -97 56 -3 -3 -6 -1 -6 5 0 7 -7 12 -16 12 -9 0 -25
9 -35 21 -9 11 -21 21 -26 21 -17 1 -39 12 -56 29 -22 20 -57 31 -57 17z"/>
</g>
</svg>
